<svg width="62" height="52" viewBox="0 0 62 52" fill="none" xmlns="http://www.w3.org/2000/svg">
<rect x="0.5" y="0.5" width="61" height="51" rx="5.5" fill="white"/>
<rect x="0.5" y="0.5" width="61" height="51" rx="5.5" stroke="white"/>
<g clip-path="url(#clip0_1_642)">
<g clip-path="url(#clip1_1_642)">
<path d="M31.3516 16.9231C32.6653 16.9231 34.3121 16.0076 35.2928 14.787C36.1809 13.6809 36.8285 12.136 36.8285 10.5912C36.8285 10.3814 36.81 10.1716 36.773 10C35.3113 10.0572 33.5535 11.0108 32.4988 12.2886C31.6661 13.2613 30.9075 14.787 30.9075 16.3509C30.9075 16.5798 30.9445 16.8086 30.963 16.8849C31.0555 16.904 31.2035 16.9231 31.3516 16.9231ZM26.7257 40C28.5206 40 29.3162 38.7603 31.5551 38.7603C33.831 38.7603 34.3306 39.9619 36.329 39.9619C38.2903 39.9619 39.604 38.0928 40.8438 36.2619C42.2315 34.164 42.8051 32.1043 42.8421 32.0089C42.7126 31.9708 38.9564 30.3878 38.9564 25.9441C38.9564 22.0915 41.9169 20.356 42.0835 20.2225C40.1221 17.3236 37.1431 17.2473 36.329 17.2473C34.1271 17.2473 32.3322 18.6205 31.2035 18.6205C29.9823 18.6205 28.3725 17.3236 26.4667 17.3236C22.8401 17.3236 19.1579 20.4132 19.1579 26.2492C19.1579 29.8729 20.5271 33.7063 22.2109 36.1856C23.6542 38.2835 24.9124 40 26.7257 40Z" fill="black"/>
</g>
</g>
<defs>
<clipPath id="clip0_1_642">
<rect width="32" height="32" fill="white" transform="translate(15 10)"/>
</clipPath>
<clipPath id="clip1_1_642">
<rect width="32" height="32" fill="white" transform="translate(15 10)"/>
</clipPath>
</defs>
</svg>
