<svg width="62" height="52" viewBox="0 0 62 52" fill="none" xmlns="http://www.w3.org/2000/svg">
<rect x="0.5" y="0.5" width="61" height="51" rx="5.5" fill="white"/>
<rect x="0.5" y="0.5" width="61" height="51" rx="5.5" stroke="white"/>
<g clip-path="url(#clip0_1_648)">
<g clip-path="url(#clip1_1_648)">
<path d="M44.5 26.3C44.5 25.19 44.4081 24.38 44.2092 23.54H31.2755V28.55H38.8673C38.7143 29.795 37.8878 31.67 36.051 32.93L36.0252 33.0977L40.1146 36.2023L40.398 36.23C42.9999 33.875 44.5 30.41 44.5 26.3Z" fill="#4285F4"/>
<path d="M31.2755 39.5C34.9949 39.5 38.1173 38.2999 40.398 36.23L36.051 32.9299C34.8878 33.7249 33.3265 34.2799 31.2755 34.2799C27.6327 34.2799 24.5409 31.925 23.4387 28.67L23.2772 28.6834L19.025 31.9084L18.9694 32.0599C21.2346 36.4699 25.8877 39.5 31.2755 39.5Z" fill="#34A853"/>
<path d="M23.4387 28.67C23.1479 27.83 22.9796 26.9299 22.9796 26C22.9796 25.0699 23.1479 24.17 23.4234 23.33L23.4157 23.1511L19.1102 19.8743L18.9694 19.9399C18.0357 21.77 17.5 23.825 17.5 26C17.5 28.175 18.0357 30.2299 18.9694 32.0599L23.4387 28.67Z" fill="#FBBC05"/>
<path d="M31.2755 17.72C33.8622 17.72 35.6071 18.815 36.602 19.73L40.4898 16.01C38.1021 13.835 34.9949 12.5 31.2755 12.5C25.8877 12.5 21.2346 15.53 18.9694 19.9399L23.4234 23.33C24.5409 20.075 27.6327 17.72 31.2755 17.72Z" fill="#EB4335"/>
</g>
</g>
<defs>
<clipPath id="clip0_1_648">
<rect width="32" height="32" fill="white" transform="translate(15 10)"/>
</clipPath>
<clipPath id="clip1_1_648">
<rect width="32" height="32" fill="white" transform="translate(15 10)"/>
</clipPath>
</defs>
</svg>
