<svg width="227" height="114" viewBox="0 0 227 114" fill="none" xmlns="http://www.w3.org/2000/svg">
<g clip-path="url(#clip0_1_661)">
<path d="M103.604 1.11237C106.66 0.0229233 109.942 -0.272116 113.145 0.253035L215.044 16.9777C219.348 17.6842 222.628 21.2066 223.021 25.5415L226.891 68.347C227.283 72.6819 224.687 76.7332 220.58 78.1969L123.327 112.857C120.271 113.946 116.988 114.241 113.786 113.716L11.8862 96.9916C7.58219 96.2851 4.30176 92.7627 3.90977 88.4278L0.039002 45.6223C-0.352993 41.2874 2.24257 37.2361 6.35024 35.7724L103.604 1.11237Z" fill="#99D7F1"/>
<path d="M81.7248 48.8092C81.813 49.8168 81.6873 50.6812 81.3478 51.4023C81.0083 52.1235 80.5267 52.7214 79.903 53.1961C79.2793 53.6708 78.5542 54.0362 77.7276 54.2923C76.901 54.5485 76.0447 54.7153 75.1587 54.7928L67.8102 55.4357L66.1961 36.9863L73.5446 36.3434C74.2568 36.281 74.9929 36.291 75.7529 36.3734C76.5128 36.4557 77.2123 36.6483 77.8515 36.9512C78.4907 37.2542 79.028 37.6929 79.4634 38.2675C79.8988 38.8421 80.1575 39.5985 80.2396 40.5366C80.3293 41.5615 80.1254 42.4328 79.628 43.1502C79.1306 43.8677 78.4431 44.4136 77.5656 44.788L77.5702 44.8401C78.099 44.8814 78.6038 44.9991 79.0847 45.1934C79.5656 45.3876 79.9913 45.6523 80.362 45.9875C80.7327 46.3227 81.0392 46.7248 81.2815 47.1937C81.5239 47.6627 81.6716 48.2012 81.7248 48.8092ZM75.9924 41.5121C75.9377 40.8867 75.6589 40.4516 75.1561 40.2067C74.6533 39.9619 73.9328 39.8805 72.9947 39.9626L70.8058 40.1541L71.1386 43.9586L73.536 43.7489C74.3699 43.6759 75.0022 43.4499 75.4329 43.0709C75.8636 42.6918 76.0501 42.1722 75.9924 41.5121ZM77.2324 48.7821C77.1655 48.0177 76.8325 47.5129 76.2334 47.2678C75.6342 47.0226 74.8569 46.9418 73.9014 47.0254L71.4259 47.242L71.7952 51.4635L74.2968 51.2446C74.6443 51.2142 75.0021 51.1523 75.3703 51.0588C75.7385 50.9653 76.0677 50.8271 76.3581 50.6441C76.6484 50.4612 76.8766 50.218 77.0426 49.9147C77.2086 49.6113 77.2719 49.2338 77.2324 48.7821Z" fill="#556265"/>
<path d="M104.208 42.8773C104.336 44.3365 104.2 45.6919 103.802 46.9434C103.404 48.1948 102.795 49.2896 101.976 50.2278C101.156 51.1661 100.15 51.9236 98.9579 52.5006C97.7655 53.0776 96.4484 53.4291 95.0065 53.5553C93.5646 53.6814 92.2107 53.5636 90.9449 53.2017C89.6791 52.8398 88.5613 52.268 87.5914 51.4863C86.6215 50.7047 85.8318 49.7322 85.2224 48.5689C84.6129 47.4056 84.2444 46.0943 84.1167 44.635C83.9875 43.1584 84.1228 41.803 84.5225 40.5689C84.9222 39.3348 85.5329 38.2617 86.3546 37.3496C87.1763 36.4374 88.1798 35.7019 89.365 35.1431C90.5503 34.5843 91.8638 34.2418 93.3057 34.1156C94.7476 33.9895 96.1051 34.0983 97.378 34.442C98.651 34.7858 99.7713 35.3355 100.739 36.0911C101.707 36.8467 102.494 37.7975 103.102 38.9434C103.71 40.0893 104.079 41.4006 104.208 42.8773ZM99.4391 43.2945C99.3692 42.4953 99.1736 41.7597 98.8522 41.0876C98.5308 40.4155 98.1183 39.8521 97.6146 39.3972C97.1109 38.9424 96.5208 38.6002 95.8443 38.3705C95.1677 38.1409 94.4386 38.0602 93.6568 38.1286C92.8751 38.197 92.1753 38.4027 91.5576 38.7455C90.9399 39.0884 90.4182 39.5279 89.9925 40.0641C89.5667 40.6002 89.2583 41.2268 89.0672 41.9437C88.8761 42.6606 88.8155 43.4187 88.8854 44.2178C88.9584 45.0517 89.1559 45.809 89.4781 46.4898C89.8002 47.1706 90.2135 47.7427 90.718 48.2062C91.2224 48.6698 91.8086 49.0167 92.4764 49.2471C93.1443 49.4775 93.8691 49.5585 94.6508 49.4902C95.4326 49.4218 96.1323 49.2161 96.75 48.8732C97.3677 48.5304 97.889 48.0865 98.314 47.5417C98.739 46.9968 99.051 46.3612 99.25 45.6348C99.4491 44.9085 99.5121 44.1283 99.4391 43.2945Z" fill="#556265"/>
<path d="M127.035 40.88C127.163 42.3393 127.028 43.6947 126.63 44.9461C126.231 46.1976 125.623 47.2924 124.803 48.2306C123.984 49.1688 122.978 49.9264 121.785 50.5034C120.593 51.0803 119.276 51.4319 117.834 51.558C116.392 51.6842 115.038 51.5663 113.772 51.2044C112.507 50.8425 111.389 50.2707 110.419 49.4891C109.449 48.7074 108.659 47.7349 108.05 46.5716C107.44 45.4083 107.072 44.097 106.944 42.6378C106.815 41.1611 106.95 39.8057 107.35 38.5717C107.75 37.3376 108.36 36.2645 109.182 35.3523C110.004 34.4402 111.007 33.7047 112.192 33.1458C113.378 32.587 114.691 32.2445 116.133 32.1184C117.575 31.9922 118.932 32.101 120.205 32.4448C121.478 32.7886 122.599 33.3382 123.566 34.0938C124.534 34.8494 125.322 35.8002 125.93 36.9461C126.538 38.0921 126.906 39.4034 127.035 40.88ZM122.267 41.2972C122.197 40.4981 122.001 39.7625 121.68 39.0904C121.358 38.4183 120.946 37.8548 120.442 37.4C119.938 36.9451 119.348 36.6029 118.672 36.3733C117.995 36.1436 117.266 36.063 116.484 36.1314C115.702 36.1998 115.003 36.4054 114.385 36.7483C113.767 37.0912 113.246 37.5307 112.82 38.0668C112.394 38.603 112.086 39.2295 111.895 39.9465C111.704 40.6634 111.643 41.4214 111.713 42.2205C111.786 43.0544 111.983 43.8117 112.305 44.4925C112.628 45.1733 113.041 45.7455 113.545 46.209C114.05 46.6725 114.636 47.0195 115.304 47.2499C115.972 47.4803 116.696 47.5613 117.478 47.4929C118.26 47.4245 118.96 47.2189 119.577 46.876C120.195 46.5331 120.716 46.0892 121.141 45.5444C121.566 44.9996 121.878 44.364 122.077 43.6376C122.276 42.9112 122.339 42.1311 122.267 41.2972Z" fill="#556265"/>
<path d="M139.997 35.361C139.572 34.908 139.039 34.5651 138.397 34.3325C137.755 34.0998 137.147 34.0085 136.574 34.0587C136.279 34.0845 135.981 34.1368 135.682 34.2155C135.383 34.2942 135.118 34.418 134.887 34.587C134.657 34.7559 134.47 34.9649 134.325 35.2138C134.181 35.4628 134.124 35.7697 134.156 36.1345C134.184 36.4472 134.272 36.7021 134.42 36.8992C134.569 37.0962 134.776 37.2619 135.041 37.3962C135.307 37.5306 135.619 37.6477 135.978 37.7476C136.337 37.8475 136.739 37.9479 137.186 38.0489C137.829 38.2026 138.501 38.3758 139.201 38.5684C139.9 38.7611 140.546 39.0415 141.139 39.4098C141.731 39.7781 142.237 40.2547 142.655 40.8395C143.074 41.4243 143.324 42.177 143.404 43.0978C143.497 44.1575 143.382 45.091 143.059 45.8983C142.735 46.7055 142.266 47.3899 141.65 47.9515C141.033 48.513 140.31 48.9527 139.481 49.2703C138.651 49.588 137.784 49.7864 136.881 49.8654C135.56 49.9809 134.263 49.8625 132.989 49.51C131.716 49.1576 130.633 48.5914 129.742 47.8116L132.401 44.5856C132.901 45.102 133.537 45.5147 134.308 45.8236C135.079 46.1325 135.829 46.255 136.559 46.1912C136.889 46.1623 137.207 46.0994 137.514 46.0026C137.821 45.9057 138.084 45.7689 138.305 45.592C138.526 45.4151 138.695 45.1903 138.811 44.9176C138.927 44.6448 138.969 44.3261 138.937 43.9612C138.907 43.6138 138.794 43.3261 138.599 43.0981C138.404 42.87 138.137 42.6702 137.798 42.4985C137.459 42.3269 137.044 42.1794 136.552 42.0562C136.06 41.9329 135.501 41.8024 134.876 41.6645C134.269 41.525 133.672 41.3497 133.084 41.1386C132.497 40.9274 131.964 40.637 131.485 40.2675C131.006 39.898 130.607 39.4341 130.287 38.8757C129.967 38.3172 129.77 37.6211 129.697 36.7872C129.607 35.7623 129.739 34.8667 130.092 34.1006C130.445 33.3345 130.94 32.6873 131.576 32.1589C132.213 31.6306 132.947 31.2206 133.78 30.929C134.612 30.6374 135.462 30.4536 136.331 30.3776C137.373 30.2864 138.454 30.3844 139.573 30.6716C140.692 30.9588 141.693 31.4402 142.575 32.1157L139.997 35.361Z" fill="#556265"/>
<path d="M153.773 33.1579L155.054 47.8028L150.598 48.1927L149.317 33.5478L144.105 34.0038L143.772 30.1992L158.652 28.8974L158.985 32.702L153.773 33.1579Z" fill="#556265"/>
<path d="M42.0597 69.1896L43.3409 83.8345L38.8849 84.2244L37.6036 69.5795L32.3919 70.0354L32.0591 66.2309L46.9385 64.9291L47.2714 68.7337L42.0597 69.1896Z" fill="#556265"/>
<path d="M51.2366 83.1437L49.6225 64.6943L62.0264 63.6091L62.357 67.3876L54.2528 68.0966L54.556 71.5624L62.2172 70.8921L62.5295 74.4621L54.8683 75.1324L55.2034 78.963L63.7767 78.2129L64.1096 82.0175L51.2366 83.1437Z" fill="#556265"/>
<path d="M80.2137 80.6086L78.4636 77.1118L71.3236 77.7365L70.2854 81.4772L65.4385 81.9012L71.5638 62.7747L75.8895 62.3962L85.1649 80.1754L80.2137 80.6086ZM74.0794 67.5173L72.2881 74.0548L76.9265 73.6489L74.0794 67.5173Z" fill="#556265"/>
<path d="M104.083 78.5202L103.045 65.4558L102.967 65.4626L99.3146 78.9374L96.1876 79.211L90.3809 66.5638L90.3028 66.5706L91.5492 79.6168L87.3538 79.9839L85.7397 61.5344L92.0719 60.9804L97.3023 72.444L97.4066 72.4348L100.385 60.2532L106.821 59.69L108.435 78.1395L104.083 78.5202Z" fill="#556265"/>
<path d="M132.435 76.0398L128.031 76.425L123.291 64.2622L123.213 64.269L120.657 77.0702L116.227 77.4578L109.375 59.4666L114.17 59.0471L118.162 71.0654L118.24 71.0585L120.45 58.4977L125.088 58.0919L129.471 70.0759L129.549 70.0691L131.446 57.5356L136.085 57.1298L132.435 76.0398Z" fill="#556265"/>
<path d="M158.357 64.3976C158.485 65.8569 158.349 67.2122 157.951 68.4637C157.553 69.7151 156.944 70.81 156.125 71.7482C155.305 72.6864 154.3 73.444 153.107 74.0209C151.915 74.5979 150.598 74.9495 149.156 75.0756C147.714 75.2018 146.36 75.0839 145.094 74.722C143.828 74.3601 142.71 73.7883 141.741 73.0066C140.771 72.225 139.981 71.2525 139.372 70.0892C138.762 68.9259 138.394 67.6146 138.266 66.1553C138.137 64.6787 138.272 63.3233 138.672 62.0892C139.071 60.8551 139.682 59.782 140.504 58.8699C141.325 57.9577 142.329 57.2222 143.514 56.6634C144.699 56.1046 146.013 55.7621 147.455 55.6359C148.897 55.5098 150.254 55.6186 151.527 55.9624C152.8 56.3061 153.92 56.8558 154.888 57.6114C155.856 58.367 156.643 59.3178 157.251 60.4637C157.859 61.6096 158.228 62.9209 158.357 64.3976ZM153.588 64.8148C153.518 64.0157 153.323 63.2801 153.001 62.608C152.68 61.9359 152.267 61.3724 151.764 60.9176C151.26 60.4627 150.67 60.1205 149.993 59.8908C149.317 59.6612 148.588 59.5806 147.806 59.649C147.024 59.7173 146.325 59.923 145.707 60.2659C145.089 60.6087 144.567 61.0483 144.142 61.5844C143.716 62.1206 143.408 62.7471 143.216 63.464C143.025 64.181 142.965 64.939 143.035 65.7381C143.108 66.572 143.305 67.3293 143.627 68.0101C143.949 68.6909 144.363 69.263 144.867 69.7266C145.372 70.1901 145.958 70.537 146.626 70.7675C147.293 70.9979 148.018 71.0789 148.8 71.0105C149.582 70.9421 150.281 70.7364 150.899 70.3936C151.517 70.0507 152.038 69.6068 152.463 69.062C152.888 68.5172 153.2 67.8816 153.399 67.1552C153.598 66.4288 153.661 65.6487 153.588 64.8148Z" fill="#556265"/>
<path d="M172.643 72.522L168.016 65.5484L166.504 65.6806L167.145 73.0031L162.767 73.3861L161.153 54.9366L168.189 54.3211C169.075 54.2436 169.947 54.2592 170.806 54.3679C171.664 54.4766 172.447 54.7188 173.154 55.0946C173.86 55.4704 174.445 55.9969 174.907 56.6743C175.369 57.3516 175.646 58.2201 175.739 59.2798C175.848 60.5306 175.601 61.6113 174.998 62.5218C174.395 63.4323 173.51 64.1224 172.343 64.5921L177.855 72.0661L172.643 72.522ZM171.342 59.7433C171.304 59.3089 171.182 58.9651 170.976 58.7118C170.77 58.4585 170.517 58.2706 170.217 58.148C169.918 58.0254 169.588 57.9536 169.227 57.9327C168.866 57.9117 168.521 57.9156 168.191 57.9445L165.819 58.152L166.196 62.4517L168.306 62.267C168.671 62.2351 169.042 62.172 169.419 62.0777C169.796 61.9835 170.134 61.8445 170.433 61.6608C170.732 61.4771 170.968 61.2289 171.142 60.916C171.316 60.6032 171.383 60.2123 171.342 59.7433Z" fill="#556265"/>
<path d="M191.979 70.8304L184.382 62.9349L184.33 62.9395L185.073 71.4345L180.695 71.8175L179.081 53.3681L183.459 52.9851L184.116 60.4899L184.194 60.4831L190.13 52.4015L195.707 51.9136L188.502 61.104L197.79 70.322L191.979 70.8304Z" fill="#556265"/>
</g>
<defs>
<clipPath id="clip0_1_661">
<rect width="226.93" height="113.969" fill="white"/>
</clipPath>
</defs>
</svg>
